<svg viewBox="0 0 25 24" xmlns="http://www.w3.org/2000/svg">
  <g id="blockpit">
    <path id="Subtract" fill="#FFFFFF" fill-rule="evenodd" clip-rule="evenodd" d="M3.50488 24H13.3318C18.127 24 20.8382 21.3257 20.8382 17.04C20.8382 14.5029 19.5453 12.3771 17.1815 11.52C18.7686 10.7314 20.0181 8.98286 20.0181 6.44571C20.0181 2.84571 17.3165 0 12.859 0H8.40231V4.38857H11.8459C13.6357 4.38857 14.8176 5.34857 14.8176 6.99429C14.8176 8.70857 13.6357 9.73714 11.8459 9.73714H8.40231V4.38857H3.50488V24ZM8.40144 13.7143V19.5086H12.3524C14.2435 19.5086 15.5943 18.4457 15.5943 16.5943C15.5943 14.8114 14.3786 13.7143 12.3524 13.7143H8.40144Z" />
  </g>
</svg>